<svg id="visual" viewBox="0 0 900 200" width="900" height="200" xmlns="http://www.w3.org/2000/svg" xmlns:xlink="http://www.w3.org/1999/xlink" version="1.1"><path d="M0 46L21.5 58.8C43 71.7 86 97.3 128.8 102.5C171.7 107.7 214.3 92.3 257.2 89.5C300 86.7 343 96.3 385.8 96.8C428.7 97.3 471.3 88.7 514.2 89.7C557 90.7 600 101.3 642.8 97.8C685.7 94.3 728.3 76.7 771.2 75.8C814 75 857 91 878.5 99L900 107L900 201L878.5 201C857 201 814 201 771.2 201C728.3 201 685.7 201 642.8 201C600 201 557 201 514.2 201C471.3 201 428.7 201 385.8 201C343 201 300 201 257.2 201C214.3 201 171.7 201 128.8 201C86 201 43 201 21.5 201L0 201Z" fill="#080808"></path><path d="M0 138L21.5 142.5C43 147 86 156 128.8 153.2C171.7 150.3 214.3 135.7 257.2 130.2C300 124.7 343 128.3 385.8 133.8C428.7 139.3 471.3 146.7 514.2 146.2C557 145.7 600 137.3 642.8 136.7C685.7 136 728.3 143 771.2 145.5C814 148 857 146 878.5 145L900 144L900 201L878.5 201C857 201 814 201 771.2 201C728.3 201 685.7 201 642.8 201C600 201 557 201 514.2 201C471.3 201 428.7 201 385.8 201C343 201 300 201 257.2 201C214.3 201 171.7 201 128.8 201C86 201 43 201 21.5 201L0 201Z" fill="#191919"></path></svg>