<svg id="visual" viewBox="0 0 900 200" width="900" height="200" xmlns="http://www.w3.org/2000/svg" xmlns:xlink="http://www.w3.org/1999/xlink" version="1.1"><path d="M0 87L21.5 83C43 79 86 71 128.8 68.5C171.7 66 214.3 69 257.2 74.3C300 79.7 343 87.3 385.8 84.2C428.7 81 471.3 67 514.2 64.2C557 61.3 600 69.7 642.8 75.7C685.7 81.7 728.3 85.3 771.2 85C814 84.7 857 80.3 878.5 78.2L900 76L900 201L878.5 201C857 201 814 201 771.2 201C728.3 201 685.7 201 642.8 201C600 201 557 201 514.2 201C471.3 201 428.7 201 385.8 201C343 201 300 201 257.2 201C214.3 201 171.7 201 128.8 201C86 201 43 201 21.5 201L0 201Z" fill="#080808"></path><path d="M0 124L21.5 117.2C43 110.3 86 96.7 128.8 97.3C171.7 98 214.3 113 257.2 113.2C300 113.3 343 98.7 385.8 98.5C428.7 98.3 471.3 112.7 514.2 114.2C557 115.7 600 104.3 642.8 103C685.7 101.7 728.3 110.3 771.2 108.8C814 107.3 857 95.7 878.5 89.8L900 84L900 201L878.5 201C857 201 814 201 771.2 201C728.3 201 685.7 201 642.8 201C600 201 557 201 514.2 201C471.3 201 428.7 201 385.8 201C343 201 300 201 257.2 201C214.3 201 171.7 201 128.8 201C86 201 43 201 21.5 201L0 201Z" fill="#080808"></path><path d="M0 143L21.5 141C43 139 86 135 128.8 128.7C171.7 122.3 214.3 113.7 257.2 117.3C300 121 343 137 385.8 138.2C428.7 139.3 471.3 125.7 514.2 118C557 110.3 600 108.7 642.8 109.7C685.7 110.7 728.3 114.3 771.2 118.3C814 122.3 857 126.7 878.5 128.8L900 131L900 201L878.5 201C857 201 814 201 771.2 201C728.3 201 685.7 201 642.8 201C600 201 557 201 514.2 201C471.3 201 428.7 201 385.8 201C343 201 300 201 257.2 201C214.3 201 171.7 201 128.8 201C86 201 43 201 21.5 201L0 201Z" fill="#080808"></path><path d="M0 160L21.5 159.8C43 159.7 86 159.3 128.8 160.5C171.7 161.7 214.3 164.3 257.2 161.5C300 158.7 343 150.3 385.8 151.7C428.7 153 471.3 164 514.2 163.8C557 163.7 600 152.3 642.8 152.2C685.7 152 728.3 163 771.2 163.5C814 164 857 154 878.5 149L900 144L900 201L878.5 201C857 201 814 201 771.2 201C728.3 201 685.7 201 642.8 201C600 201 557 201 514.2 201C471.3 201 428.7 201 385.8 201C343 201 300 201 257.2 201C214.3 201 171.7 201 128.8 201C86 201 43 201 21.5 201L0 201Z" fill="#080808"></path></svg>