<svg id="visual" viewBox="0 0 900 100" width="900" height="100" xmlns="http://www.w3.org/2000/svg" xmlns:xlink="http://www.w3.org/1999/xlink" version="1.1"><path d="M0 76L21.5 75.8C43 75.7 86 75.3 128.8 68.8C171.7 62.3 214.3 49.7 257.2 48.2C300 46.7 343 56.3 385.8 62.2C428.7 68 471.3 70 514.2 65.3C557 60.7 600 49.3 642.8 43.5C685.7 37.7 728.3 37.3 771.2 38C814 38.7 857 40.3 878.5 41.2L900 42L900 0L878.5 0C857 0 814 0 771.2 0C728.3 0 685.7 0 642.8 0C600 0 557 0 514.2 0C471.3 0 428.7 0 385.8 0C343 0 300 0 257.2 0C214.3 0 171.7 0 128.8 0C86 0 43 0 21.5 0L0 0Z" fill="#191919"></path><path d="M0 48L21.5 42.8C43 37.7 86 27.3 128.8 22.5C171.7 17.7 214.3 18.3 257.2 21.5C300 24.7 343 30.3 385.8 32C428.7 33.7 471.3 31.3 514.2 29C557 26.7 600 24.3 642.8 22.2C685.7 20 728.3 18 771.2 21.7C814 25.3 857 34.7 878.5 39.3L900 44L900 0L878.5 0C857 0 814 0 771.2 0C728.3 0 685.7 0 642.8 0C600 0 557 0 514.2 0C471.3 0 428.7 0 385.8 0C343 0 300 0 257.2 0C214.3 0 171.7 0 128.8 0C86 0 43 0 21.5 0L0 0Z" fill="#191919"></path></svg>