<svg id="visual" viewBox="0 0 900 300" width="900" height="300" xmlns="http://www.w3.org/2000/svg" xmlns:xlink="http://www.w3.org/1999/xlink" version="1.1"><path d="M0 68L21.5 69.2C43 70.3 86 72.7 128.8 85.3C171.7 98 214.3 121 257.2 136.2C300 151.3 343 158.7 385.8 154.2C428.7 149.7 471.3 133.3 514.2 133.5C557 133.7 600 150.3 642.8 153.8C685.7 157.3 728.3 147.7 771.2 143.8C814 140 857 142 878.5 143L900 144L900 301L878.5 301C857 301 814 301 771.2 301C728.3 301 685.7 301 642.8 301C600 301 557 301 514.2 301C471.3 301 428.7 301 385.8 301C343 301 300 301 257.2 301C214.3 301 171.7 301 128.8 301C86 301 43 301 21.5 301L0 301Z" fill="#080808"></path><path d="M0 194L21.5 188C43 182 86 170 128.8 177.3C171.7 184.7 214.3 211.3 257.2 218.7C300 226 343 214 385.8 211.7C428.7 209.3 471.3 216.7 514.2 216.5C557 216.3 600 208.7 642.8 208.8C685.7 209 728.3 217 771.2 211.5C814 206 857 187 878.5 177.5L900 168L900 301L878.5 301C857 301 814 301 771.2 301C728.3 301 685.7 301 642.8 301C600 301 557 301 514.2 301C471.3 301 428.7 301 385.8 301C343 301 300 301 257.2 301C214.3 301 171.7 301 128.8 301C86 301 43 301 21.5 301L0 301Z" fill="#080808"></path></svg>