<svg id="visual" viewBox="0 0 900 100" width="900" height="100" xmlns="http://www.w3.org/2000/svg" xmlns:xlink="http://www.w3.org/1999/xlink" version="1.1"><path d="M0 72L21.5 70.2C43 68.3 86 64.7 128.8 66C171.7 67.3 214.3 73.7 257.2 75.3C300 77 343 74 385.8 70.3C428.7 66.7 471.3 62.3 514.2 61.3C557 60.3 600 62.7 642.8 66.3C685.7 70 728.3 75 771.2 73.2C814 71.3 857 62.7 878.5 58.3L900 54L900 0L878.5 0C857 0 814 0 771.2 0C728.3 0 685.7 0 642.8 0C600 0 557 0 514.2 0C471.3 0 428.7 0 385.8 0C343 0 300 0 257.2 0C214.3 0 171.7 0 128.8 0C86 0 43 0 21.5 0L0 0Z" fill="#080808"></path><path d="M0 39L21.5 42.2C43 45.3 86 51.7 128.8 53.7C171.7 55.7 214.3 53.3 257.2 50.8C300 48.3 343 45.7 385.8 43.7C428.7 41.7 471.3 40.3 514.2 41.8C557 43.3 600 47.7 642.8 47.5C685.7 47.3 728.3 42.7 771.2 40.2C814 37.7 857 37.3 878.5 37.2L900 37L900 0L878.5 0C857 0 814 0 771.2 0C728.3 0 685.7 0 642.8 0C600 0 557 0 514.2 0C471.3 0 428.7 0 385.8 0C343 0 300 0 257.2 0C214.3 0 171.7 0 128.8 0C86 0 43 0 21.5 0L0 0Z" fill="#080808"></path><path d="M0 35L21.5 34C43 33 86 31 128.8 29.2C171.7 27.3 214.3 25.7 257.2 24C300 22.3 343 20.7 385.8 20.3C428.7 20 471.3 21 514.2 21.3C557 21.7 600 21.3 642.8 22.5C685.7 23.7 728.3 26.3 771.2 27.8C814 29.3 857 29.7 878.5 29.8L900 30L900 0L878.5 0C857 0 814 0 771.2 0C728.3 0 685.7 0 642.8 0C600 0 557 0 514.2 0C471.3 0 428.7 0 385.8 0C343 0 300 0 257.2 0C214.3 0 171.7 0 128.8 0C86 0 43 0 21.5 0L0 0Z" fill="#080808"></path></svg>