<svg id="visual" viewBox="0 0 900 500" width="900" height="500" xmlns="http://www.w3.org/2000/svg" xmlns:xlink="http://www.w3.org/1999/xlink" version="1.1"><path d="M0 396L21.5 391.3C43 386.7 86 377.3 128.8 343.7C171.7 310 214.3 252 257.2 245.7C300 239.3 343 284.7 385.8 309.5C428.7 334.3 471.3 338.7 514.2 303C557 267.3 600 191.7 642.8 153.5C685.7 115.3 728.3 114.7 771.2 122.2C814 129.7 857 145.3 878.5 153.2L900 161L900 501L878.5 501C857 501 814 501 771.2 501C728.3 501 685.7 501 642.8 501C600 501 557 501 514.2 501C471.3 501 428.7 501 385.8 501C343 501 300 501 257.2 501C214.3 501 171.7 501 128.8 501C86 501 43 501 21.5 501L0 501Z" fill="#080808" stroke-linecap="round" stroke-linejoin="miter"></path></svg>