<svg id="visual" viewBox="0 0 900 200" width="900" height="200" xmlns="http://www.w3.org/2000/svg" xmlns:xlink="http://www.w3.org/1999/xlink" version="1.1"><path d="M0 40L21.5 48.3C43 56.7 86 73.3 128.8 76.8C171.7 80.3 214.3 70.7 257.2 65.7C300 60.7 343 60.3 385.8 64.5C428.7 68.7 471.3 77.3 514.2 83.2C557 89 600 92 642.8 94.3C685.7 96.7 728.3 98.3 771.2 91.5C814 84.7 857 69.3 878.5 61.7L900 54L900 201L878.5 201C857 201 814 201 771.2 201C728.3 201 685.7 201 642.8 201C600 201 557 201 514.2 201C471.3 201 428.7 201 385.8 201C343 201 300 201 257.2 201C214.3 201 171.7 201 128.8 201C86 201 43 201 21.5 201L0 201Z" fill="#1c1c1c"></path><path d="M0 123L21.5 119.8C43 116.7 86 110.3 128.8 104.5C171.7 98.7 214.3 93.3 257.2 92.7C300 92 343 96 385.8 104.5C428.7 113 471.3 126 514.2 126.8C557 127.7 600 116.3 642.8 110.5C685.7 104.7 728.3 104.3 771.2 107.3C814 110.3 857 116.7 878.5 119.8L900 123L900 201L878.5 201C857 201 814 201 771.2 201C728.3 201 685.7 201 642.8 201C600 201 557 201 514.2 201C471.3 201 428.7 201 385.8 201C343 201 300 201 257.2 201C214.3 201 171.7 201 128.8 201C86 201 43 201 21.5 201L0 201Z" fill="#272727"></path><path d="M0 152L21.5 155.2C43 158.3 86 164.7 128.8 162.7C171.7 160.7 214.3 150.3 257.2 143.8C300 137.3 343 134.7 385.8 139.5C428.7 144.3 471.3 156.7 514.2 163C557 169.3 600 169.7 642.8 165.2C685.7 160.7 728.3 151.3 771.2 148C814 144.7 857 147.3 878.5 148.7L900 150L900 201L878.5 201C857 201 814 201 771.2 201C728.3 201 685.7 201 642.8 201C600 201 557 201 514.2 201C471.3 201 428.7 201 385.8 201C343 201 300 201 257.2 201C214.3 201 171.7 201 128.8 201C86 201 43 201 21.5 201L0 201Z" fill="#333333"></path></svg>