<svg width="32" height="32" viewBox="0 0 32 32" fill="none" xmlns="http://www.w3.org/2000/svg">
<path d="M9 19V15C9 14.4 8.6 14 8 14H1C0.4 14 0 14.4 0 15V19C0 19.6 0.4 20 1 20H8C8.6 20 9 19.6 9 19Z" fill="white"/>
<path d="M31 14H24C23.4 14 23 14.4 23 15V19C23 19.6 23.4 20 24 20H31C31.6 20 32 19.6 32 19V15C32 14.4 31.6 14 31 14Z" fill="white"/>
<path d="M12 14C11.4 14 11 14.4 11 15V19C11 19.6 11.4 20 12 20H20C20.6 20 21 19.6 21 19V15C21 14.4 20.6 14 20 14H12Z" fill="white"/>
<path d="M6 12H14C14.6 12 15 11.6 15 11V7C15 6.4 14.6 6 14 6H6C5.4 6 5 6.4 5 7V11C5 11.6 5.4 12 6 12Z" fill="white"/>
<path d="M18 12H26C26.6 12 27 11.6 27 11V7C27 6.4 26.6 6 26 6H18C17.4 6 17 6.4 17 7V11C17 11.6 17.4 12 18 12Z" fill="white"/>
<path d="M14 22H6C5.4 22 5 22.4 5 23V27C5 27.6 5.4 28 6 28H14C14.6 28 15 27.6 15 27V23C15 22.4 14.6 22 14 22Z" fill="white"/>
<path d="M26 22H18C17.4 22 17 22.4 17 23V27C17 27.6 17.4 28 18 28H26C26.6 28 27 27.6 27 27V23C27 22.4 26.6 22 26 22Z" fill="white"/>
</svg>
