<svg width="32" height="32" viewBox="0 0 32 32" fill="none" xmlns="http://www.w3.org/2000/svg">
<path d="M22 14C17.6 14 14 17.6 14 22C14 26.4 17.6 30 22 30C26.4 30 30 26.4 30 22C30 17.6 26.4 14 22 14ZM25 21.1C24.8 21.2 24.6 21.3 24.4 21.3C24.1 21.3 23.8 21.1 23.6 20.9C23.2 20.4 22.6 20 22 20C21.4 20 21 19.6 21 19C21 18.4 21.4 18 22 18C23.3 18 24.5 18.6 25.3 19.7C25.6 20.2 25.5 20.8 25 21.1Z" fill="white"/>
<path d="M9 14C6.2 14 4 11.8 4 9C4 6.2 6.2 4 9 4C11.8 4 14 6.2 14 9C14 11.8 11.8 14 9 14Z" fill="white"/>
<path d="M5.5 26C3 26 1 24 1 21.5C1 19 3 17 5.5 17C8 17 10 19 10 21.5C10 24 8 26 5.5 26Z" fill="white"/>
<path d="M19 7C18.4 7 18 6.6 18 6V3C18 2.4 18.4 2 19 2C19.6 2 20 2.4 20 3V6C20 6.6 19.6 7 19 7Z" fill="white"/>
<path d="M26 11H23C22.4 11 22 10.6 22 10C22 9.4 22.4 9 23 9H26C26.6 9 27 9.4 27 10C27 10.6 26.6 11 26 11Z" fill="white"/>
<path d="M21.8 8.2C21.5 8.2 21.3 8.1 21.1 7.9C20.7 7.5 20.7 6.9 21.1 6.5L23.2 4.4C23.6 4 24.2 4 24.6 4.4C25 4.8 25 5.4 24.6 5.8L22.5 7.9C22.3 8.1 22.1 8.2 21.8 8.2Z" fill="white"/>
</svg>
