<svg width="278" height="293" viewBox="0 0 278 293" fill="none" xmlns="http://www.w3.org/2000/svg">
<g clip-path="url(#clip0)">
<path d="M101.62 215.988H139.001C136.662 184.03 126.169 139.782 126.169 139.782C107.722 65.3197 74.0473 35.465 67.3473 35.5188C67.3577 35.5437 113.454 124.835 101.62 215.988Z" fill="white"/>
<path d="M78.238 184.361C78.238 184.361 58.1413 124.437 31 116.059C31 116.059 60.5672 177.738 60.7378 215.996H83.4588L78.238 184.361Z" fill="white"/>
<path d="M198.626 4C198.626 4 136.732 50.707 123.795 135.659L133.164 215.967H156.303C156.303 215.967 143.133 74.7867 198.626 4Z" fill="white"/>
<path d="M208.957 62.8651C208.957 62.8651 149.874 124.991 141.434 216H171.816C172.386 161.91 185.217 109.006 208.957 62.8651V62.8651Z" fill="white"/>
<path d="M41.6923 58.767C41.6923 58.767 99.8451 124.81 106.883 215.988H76.4977C76.8775 160.829 64.8615 106.551 41.6923 58.767V58.767Z" fill="white"/>
<path d="M172.533 180.47C172.533 180.47 194.652 119.565 222.75 111.886C222.75 111.886 190.865 176.666 189.748 215.992H166.48L172.533 180.47Z" fill="white"/>
<path d="M157.113 198.052C163.588 199.816 167.514 204.447 181.398 207.32C195.272 210.127 219.228 211.227 218.191 214.966C217.276 218.756 191.256 225.2 179.805 232.226C168.231 239.2 170.989 246.72 167.673 255.094C164.254 263.547 154.74 272.725 145.075 272.643C135.522 272.546 125.818 263.19 110.704 260.544C95.6001 257.963 75.1996 262.076 66.804 259.026C58.3985 255.91 61.998 245.631 59.3299 235.696C56.6619 225.762 47.521 216.333 55.707 212.001C63.8931 207.668 89.3035 208.513 104.954 207.151C120.594 205.724 126.586 202.077 134.038 199.709C141.603 197.326 150.628 196.223 157.113 198.052Z" fill="white"/>
</g>
<defs>
<clipPath id="clip0">
<rect width="278" height="293" fill="white"/>
</clipPath>
</defs>
</svg>
